<svg xmlns="http://www.w3.org/2000/svg" viewBox="0 0 413.42 413.42"><defs><style>.cls-1{fill:#ce0863;}.cls-2{fill:#fff;}</style></defs><title>资源 1</title><g id="图层_2" data-name="图层 2"><g id="图层_1-2" data-name="图层 1"><rect class="cls-1" width="413.42" height="413.42"/><path class="cls-2" d="M81.65,246.91a16.36,16.36,0,0,0,7.27-5.83,15.37,15.37,0,0,0,2.59-8.86A15.76,15.76,0,0,0,89,223.4a16.36,16.36,0,0,0-7.2-5.94,26.48,26.48,0,0,0-10.87-2.09H52.7v8.86h17a14.08,14.08,0,0,1,7.71,1.94,7.5,7.5,0,0,1,0,12.06,13.83,13.83,0,0,1-7.67,2h-17v27.87H63.14v-19h8.07L84,268l12.46.07Z"/><path class="cls-2" d="M145.69,227.18a23.48,23.48,0,0,0-9.07-9.47,25.41,25.41,0,0,0-12.74-3.27V224a12.68,12.68,0,0,1,7.34,2.19,14.33,14.33,0,0,1,5,6.19,22.85,22.85,0,0,1,1.76,9.25,23.08,23.08,0,0,1-1.76,9.29,14.22,14.22,0,0,1-5,6.23,13.48,13.48,0,0,1-14.76,0,14.22,14.22,0,0,1-5-6.23,22.92,22.92,0,0,1-1.76-9.25h-11A30.5,30.5,0,0,0,102,256.2a23.28,23.28,0,0,0,9,9.47,26.61,26.61,0,0,0,25.56,0,23.48,23.48,0,0,0,9.07-9.47,33.1,33.1,0,0,0,0-29Z"/><rect class="cls-2" x="157.61" y="215.37" width="10.44" height="36.84"/><polygon class="cls-2" points="179.38 258.72 168.05 258.72 157.61 258.72 157.61 268.08 192.02 268.08 192.02 258.72 179.38 258.72"/><rect class="cls-2" x="199.37" y="215.37" width="10.44" height="36.84"/><polygon class="cls-2" points="220.32 258.72 209.81 258.72 199.37 258.72 199.37 268.08 233.78 268.08 233.78 258.72 220.32 258.72"/><rect class="cls-2" x="241.13" y="215.37" width="10.44" height="6.9"/><rect class="cls-2" x="241.13" y="228.78" width="10.44" height="39.29"/><polygon class="cls-2" points="262.58 231.18 262.58 268.08 272.16 268.08 272.16 244.22 262.58 231.18"/><polygon class="cls-2" points="296.56 215.38 296.56 250.22 271 215.38 262.58 215.38 262.58 220.19 272.16 233.23 272.16 233.16 297.79 268.08 306.28 268.08 306.28 215.38 296.56 215.38"/><path class="cls-2" d="M325.65,241.69v0a21.27,21.27,0,0,1,2-9.36,14.73,14.73,0,0,1,5.32-6.19,13.9,13.9,0,0,1,7.64-2.16,12.61,12.61,0,0,1,7,1.91,12.48,12.48,0,0,1,4.54,5.22l8.64-5a16.53,16.53,0,0,0-7.24-8.39,23.82,23.82,0,0,0-12.64-3.27,26.45,26.45,0,0,0-13.24,3.38,24.2,24.2,0,0,0-9.4,9.58,29,29,0,0,0-3.42,14.25v0Z"/><polygon class="cls-2" points="327.24 268.08 338.55 268.08 352.72 253.91 352.72 268.07 360.72 268.07 360.72 240.26 332.91 240.26 332.91 248.26 347.06 248.26 327.24 268.08"/><polygon class="cls-2" points="141.39 323.3 141.39 302.65 141.48 302.65 141.48 288.09 131.04 288.09 131.04 340.8 141.48 340.8 141.48 323.3 141.39 323.3"/><polygon class="cls-2" points="165.24 288.09 165.24 308.83 147.9 308.83 147.9 318.12 165.24 318.12 165.24 340.8 175.75 340.8 175.75 288.09 165.24 288.09"/><path class="cls-2" d="M231,318.9V288.09H220.53V317c0,.67,0,1.32-.05,1.94Z"/><path class="cls-2" d="M209.08,332.07l-.43,0q-5.68,0-8.82-3.75T196.7,317V288.09H186.26v31.4a24.66,24.66,0,0,0,2.67,11.77,18.33,18.33,0,0,0,7.7,7.7,25.13,25.13,0,0,0,12,2.7h.43Z"/><path class="cls-2" d="M273.67,313.44q5.9-3.39,5.9-10.66A12.6,12.6,0,0,0,274.28,292q-5.29-3.85-13.72-3.86H241.48v9.08h18.08a12.6,12.6,0,0,1,6.76,1.54,4.94,4.94,0,0,1,2.45,4.43,5.53,5.53,0,0,1-2.48,4.72,11.48,11.48,0,0,1-6.73,1.76H241.48v8.71h20.09q4.83,0,7.38,1.8a5.74,5.74,0,0,1,2.56,5A5.56,5.56,0,0,1,269,330q-2.55,1.72-7.31,1.73H241.48v9.07h21q9.44,0,14.65-4a13.32,13.32,0,0,0,5.22-11.16Q282.38,316.53,273.67,313.44Z"/><polygon class="cls-2" points="258.02 100.53 244.5 107.76 244.5 107.76 237.74 111.37 237.19 111.66 237.19 111.66 206.71 127.93 170.29 107.02 206.71 88 232.9 101.7 246.82 94.26 206.71 71.76 151.74 102.59 151.74 114.44 165.48 121.83 165.48 121.79 199.84 140.36 199.84 171.27 165.48 149.85 165.48 134.1 151.74 126.71 151.74 157.24 207.08 189.15 213.58 185.35 213.58 170.53 213.58 161.04 213.58 140.36 247.94 122.53 247.94 149.12 224.12 163.97 224.12 179.19 261.68 157.24 261.68 102.59 258.02 100.53"/></g></g></svg>