<?xml version="1.0" standalone="no"?><!DOCTYPE svg PUBLIC "-//W3C//DTD SVG 1.1//EN" "http://www.w3.org/Graphics/SVG/1.1/DTD/svg11.dtd"><svg t="1693979588416" class="icon" viewBox="0 0 2227 1024" version="1.1" xmlns="http://www.w3.org/2000/svg" p-id="16004" xmlns:xlink="http://www.w3.org/1999/xlink" width="39.146484375" height="18"><path d="M2218.244504 187.064745a2123.864329 2123.864329 0 0 1-39.436539-4.684769l1.139193-1.958387c-172.978054-32.447785-346.391305-66.316361-510.742216-128.447149-40.626931-15.999894-80.844264-33.27978-120.600801-51.839657-8.524744-3.967974-52.441253 80.985063-47.999682 83.148249a1405.789087 1405.789087 0 0 0 120.588001 51.826857 2113.649997 2113.649997 0 0 0 102.732119 37.311753c-243.108789 14.835102-484.092793 61.93879-715.361661 140.991066-183.934781 62.873183-361.200807 145.343037-527.356506 246.244768C312.46513 662.133597 151.032599 781.134409 36.524558 944.256528 24.774236 960.998817 7.033553 982.835473 2.579183 1003.046539c-2.623983 11.903921-6.10556 20.467064 5.875161 3.391977 117.016825-166.693296 292.158064-285.706907 465.635315-387.389433 172.696456-101.208929 356.976835-182.424391 547.810771-242.660793 247.639959-78.156282 505.353452-120.127204 764.167737-125.400769-93.720979 24.012641-185.419572 55.218834-273.380589 98.776946-12.07032 5.97756-23.334245 33.13898-29.311805 43.890909-2.687982 4.838368-14.412705 37.554951-16.729489 38.399746l67.506752-24.575838c4.364771-1.599989 8.537543-5.96476 12.351918-11.315125 183.000388-74.661905 379.837484-104.16571 575.394588-131.21193 16.115093 1.676789 32.242986 3.276778 48.34528 5.247965 14.323105 1.54879 32.268586-50.137268 41.983722-72.729118l6.01596-10.406331" fill="#2F54EB" p-id="16005"></path></svg>